<?xml version="1.0" encoding="utf-8"?>
<!-- Generator: Adobe Illustrator 23.0.2, SVG Export Plug-In . SVG Version: 6.00 Build 0)  -->
<svg version="1.1" id="Layer_1" xmlns="http://www.w3.org/2000/svg" xmlns:xlink="http://www.w3.org/1999/xlink" x="0px" y="0px"
	 viewBox="0 0 800.2 389.1" style="enable-background:new 0 0 800.2 389.1;" xml:space="preserve">
<style type="text/css">
	.st0{fill:#231F20;}
</style>
<g>
	<path class="st0" d="M479.4,15c2.2-0.4,3.6-2.1,6.2-1.9c-2,0.8-3.9,1.6-5.9,2.3C479.6,15.2,479.5,15.1,479.4,15z"/>
	<path class="st0" d="M471,18.6c0.8-0.7,2.8-1.5,5.3-1.9c-1.7,0.7-3.4,1.4-5.1,2.2C471.2,18.8,471.1,18.7,471,18.6z"/>
	<path class="st0" d="M470.3,17.3c-1,0.7-1.6,2-3.5,1.3C467.7,17.8,469.1,17.7,470.3,17.3z"/>
	<path class="st0" d="M489.2,10.1c1-0.8,2.1-1.3,3.6-1.5C491.9,9.5,490.6,9.9,489.2,10.1z"/>
	<path class="st0" d="M482.5,12.7c-1.1,0.8-2.4,1.4-3.9,1.6C479.6,13.3,480.9,12.8,482.5,12.7z"/>
	<path class="st0" d="M490.3,11.4c-1.2,0.4-2.4,0.8-3.7,1.2c-0.1-0.1-0.1-0.2-0.2-0.3c1.3-0.3,2.3-1.3,3.7-1.2
		C490.3,11.1,490.3,11.2,490.3,11.4z"/>
	<path class="st0" d="M472,16.5c1.2-0.4,2.2-0.7,3.2-1C474.6,16.3,473.6,16.6,472,16.5z"/>
	<path class="st0" d="M509.3,3c-1.1,0.3-2.3,0.6-3.4,0.9C506.9,2.9,507.5,2.7,509.3,3L509.3,3z"/>
	<path class="st0" d="M485.4,11.3c0.7-0.3,1.4-0.5,2.3-0.8C487,11.3,487,11.3,485.4,11.3z"/>
	<path class="st0" d="M284.8,106.9c0.5-0.2,1-0.3,1.4-0.5c2-1.2,4-2.5,6.5-3.2c1.2-0.4,2.2-1.2,3.2-1.9c1.3-0.9,3-1.3,3.9-2.6
		c0.3-0.4,1.3-0.4,1.9-0.7c4-2.1,7.9-4.1,11.9-6.2c3.3-1.8,6.6-3.6,9.9-5.5c2.7-1.5,5.3-2.9,8-4.4c0.5-0.3,1-0.4,1.6-0.6
		c1.5-0.5,2.6-1.3,3.9-2c2.5-1.4,5.2-2.6,7.8-3.9c0.8-0.4,1.5-0.9,2.4-1.2c-0.5,1.2-2,1.7-3.2,2.3c-2.5,1.4-5.1,2.8-7.7,4.1
		c-2.8,1.4-5.7,2.8-8.6,4.3c-0.6,0.3-1,0.7-1.6,1c-3.8,2.1-7.6,4.2-11.5,6.2c-4.5,2.4-9,4.7-13.4,7.1c-2.4,1.3-4.6,2.7-7,4.1
		c-2.1,1.2-4.4,2.3-6.5,3.5c-1.3,0.7-2.6,1.5-3.9,2.2c-2.4,1.3-4.8,2.5-7.2,3.8c-0.6,0.3-1,0.7-1.6,1c-2.3,1.1-4.4,2.5-6.5,3.7
		c-2.7,1.5-5.6,2.8-8.3,4.2c-1.9,1-3.8,2.1-5.6,3.4c0.5-0.1,1.1-0.1,1.6-0.3c4-1.1,7.9-2.2,11.9-3.3c3.6-0.9,7.2-1.8,10.9-2.6
		c2.3-0.5,4.6-0.9,7-1.3c2.5-0.4,5-0.6,7.5-1c1.8-0.3,3.5-0.8,5.3-1c4.1-0.5,8.2-0.8,12.3-1.3c0.9-0.1,1.7-0.4,2.6-0.5
		c3-0.3,5.9-0.5,8.9-0.7c3.9-0.3,7.9-0.5,11.8-0.8c1.4-0.1,2.9-0.1,4.3-0.2c2.9-0.2,5.7-0.4,8.6-0.5c1.9-0.1,3.8-0.1,5.7-0.1
		c3.8-0.1,7.6-0.3,11.4-0.3c3.6,0,7.2,0.3,10.9,0.5c3.5,0.2,7,0.3,10.4,0.6c1.9,0.1,3.8,0.5,5.7,0.8c0.5,0.1,1,0.2,1.6,0.3
		c1.5,0.1,3-0.1,4.2,0.9c0.2,0.2,0.8,0.1,1.2,0.1c1.9,0,3.8,0.4,5.6,1c2.7,0.9,5.4,1.8,8.1,2.7c1.5,0.5,3,1.1,4.4,1.7
		c0.6,0.3,1,0.9,1.5,1.3c1.3,0.9,2.6,1.8,4,2.6c1.1,0.7,2,1.6,2.4,2.7c0.6,1.4,1.2,2.9,1,4.4c0,0.4,0.1,0.7,0.2,1.1
		c0.2,0.9,0.2,1.7-0.3,2.6c-0.3,0.4-0.1,1-0.2,1.5c-0.8,2.3-1.7,4.6-3.3,6.7c-0.2,0.3-0.5,0.5-0.6,0.8c-2.1,4.4-5.9,8-9.5,11.6
		c-1.7,1.7-3.3,3.4-5,5.1c-1,0.9-2.1,1.8-3.2,2.6c-4.3,3.4-8.5,6.8-12.9,10c-3.1,2.3-6.4,4.6-9.7,6.8c-4.3,2.9-8.7,5.8-13.2,8.6
		c-3.2,2-6.7,3.8-10,5.6c-1.9,1-3.8,2.1-5.7,3.1c-2.7,1.4-5.4,2.8-8.2,4.1c-3.6,1.8-7.2,3.6-10.9,5.2c-3.1,1.4-6.2,2.6-9.4,3.8
		c-4.6,1.7-9.2,3.4-14,4.9c-5,1.6-10,3-15.1,4.4c-2.5,0.7-5,1.5-7.6,1.9c-5,0.7-9.9,1.8-15,2.2c-3.8,0.3-7.6,0.6-11.4,0.3
		c-3.3-0.3-6.7-0.5-9.9-1.1c-3.9-0.8-7.6-1.8-11.2-3.4c-6-2.6-9.6-6.5-11.4-11.5c-1.5-4.2-1.7-8.4-1.3-12.7c0.3-3.2,1.5-6.2,2.7-9.3
		c0.2-0.4,0.3-0.9,0.2-1.4c-1.8,1.5-3.6,3-5.4,4.5c-3.5,2.9-7.1,5.8-10.7,8.6c-3.3,2.7-6.7,5.4-10.1,8c-2,1.5-4,3-6,4.5
		c-2.1,1.6-4.3,3.2-6.4,4.8c-0.7,0.5-1.4,1-2.2,1.4c-0.4,0.3-0.9,0.6-1.3,1c-0.2,0.2-0.3,0.4-0.5,0.5c-2.1,1.3-4.2,2.6-6.3,3.9
		c-1,0.6-1.8,1.3-2.8,2c-2.4,1.6-4.8,3.2-7.4,4.7c-3.7,2.2-7.5,4.3-11.4,6.4c-3.2,1.7-6.5,3.4-9.9,4.9c-3.4,1.5-7,2.8-10.6,4.1
		c-3.1,1.1-6.3,2.3-9.5,3.1c-3.2,0.8-6.5,1.6-9.9,1.9c-3.1,0.3-6.3,0.6-9.4,0.4c-1.7-0.1-3.5-0.5-5.2-0.7c-1.1-0.2-2.1-0.4-3.4-0.6
		c-0.1,0.6-0.2,1-0.3,1.3c-0.6,0.2-1.2,0.4-1.9,0.7c-0.8-0.9,0.1-1.7,0.3-2.5c-1.8-0.7-3.6-1.3-5.4-2.1c-1.6-0.7-3.1-1.5-4-2.8
		c-0.3-0.5-0.7-0.9-1.2-1.2c-2.6-1.3-3.5-3.5-4.4-5.5c-1.8-3.8-2.1-7.8-1.6-11.9c0.4-3.2,0.8-6.3,1.8-9.4c1-3.1,2-6.3,3.2-9.4
		c1-2.5,2.1-5,3.2-7.4c0.9-1.8,1.9-3.6,2.9-5.3c1.2-2.1,2.4-4.2,3.7-6.2c2.2-3.4,4.5-6.9,6.8-10.3c0.6-0.8,0.7-1.9,2.3-2.2
		c0.1,0,0.3-0.1,0.3-0.2c0-1.9,2.3-2.7,3.4-4.1c1.1-1.4,2.6-2.6,4-3.9c1.7-1.6,3.3-3.2,5.1-4.7c2.1-1.7,4.5-3.2,6.7-4.8
		c2.6-2,5.8-3.1,9.2-4c1.3-0.3,2.7-0.5,4-0.6c2.6-0.2,4.6,1.1,4.9,3.3c0.3,1.6,0.1,3.2-0.1,4.8c-0.2,1.6-0.3,3.2-0.7,4.8
		c-0.1,0.7-0.3,1.3-0.5,2c-1.5,4.4-2.9,8.8-4.4,13.2c-0.6,1.8-1.5,3.6-2.2,5.4c-0.8,2-1.7,3.9-2.6,5.9c-0.2,0.4-0.6,0.8-0.8,1.3
		c-0.6,1.3-0.9,2.6-1.7,3.8c-1.1,1.8-1.5,3.8-2.4,5.6c-0.5,1-1,1.9-1.7,2.8c-0.7,0.9-1.4,1.8-1.1,2.9c0.1,0.4-0.3,0.8-0.5,1.2
		c-0.8,1.5-1.9,2.9-2.5,4.4c-0.9,2.3-2.2,4.5-3.6,6.7c-1.5,2.4-2.8,5-4.3,7.4c-1.4,2.4-2.9,4.7-4.4,7c-1.7,2.6-3.5,5.2-5.3,7.9
		c-0.3,0.5-0.9,0.9-1.3,1.5c0.1,0.8,0.9,1.1,1.9,1.4c3.5,0.9,7.1,0.8,10.7,0.6c3.8-0.3,7.4-1.1,10.9-2.1c4.1-1.2,8.3-2.3,12-4.2
		c3.5-1.8,7.4-3.1,10.9-4.9c5.2-2.7,10.3-5.5,15.3-8.4c5-2.9,9.8-6.1,14.5-9.2c4.7-3.1,9.1-6.4,13.7-9.7c2.1-1.5,4.3-3,6.4-4.5
		c0.8-0.6,1.3-1.4,2.1-1.9c1.8-1.2,3.2-2.6,5.2-3.7c1.7-0.9,2.7-2.4,4.2-3.6c2-1.6,4.2-3.1,6.3-4.7c1.3-1,2.4-2.1,3.7-3.1
		c0.3-0.2,0.8-0.3,1.5-0.4c0.1-0.8,0.3-1.7,1.7-2.2c0.7-0.3,0.9-1.4,1.6-1.7c1.8-0.7,2.4-2.1,3.8-3.1c1.4-1,2.5-2.2,3.7-3.3
		c0.8-0.8,1.4-1.6,2-2.5c2-3,3.8-6.1,6-9c2.4-3.1,5.2-6,8.9-8.4c1.6-1,3.1-1.6,5.1-1.6c1.7,0,2.1,0.4,2,1.7c0,0.5,0,0.9,0.1,1.4
		c-1.9,1.3-3.3,2.9-4.4,4.6c-0.1,0.2-0.4,0.4-0.6,0.6c-2.9,3-5.8,6-8.6,9c-2,2.2-3.7,4.6-5,7.1c-0.9,1.8-2,3.6-3,5.4
		c-1.7,3.1-2.7,6.4-3.6,9.7c-0.8,2.9-1.2,5.8-1,8.7c0.2,2,0.9,3.9,1.4,5.8c0.2,0.7,0.5,1.3,0.8,1.9c0.8,2.2,2.2,4,4.7,5.4
		c4,2.4,8.2,4.1,13.1,5c2.1,0.4,4.3,0.6,6.4,0.9c3.4,0.4,6.8,0.4,10.2,0c2.9-0.4,5.8-0.3,8.6-1.1c2-0.5,4.2-0.6,6.2-1.1
		c2.9-0.7,6-1,8.9-2c2.9-1,6-1.8,9-2.7c3.4-1,6.6-2.2,10-3.2c3.8-1.1,7.1-2.8,10.8-4c1.5-0.5,3-1,4.4-1.6c2.3-1,4.5-2.1,6.8-3.1
		c0.7-0.3,1.5-0.7,2.3-1c2-0.8,4.2-1.6,6.1-2.6c2.3-1.2,4.4-2.7,6.7-3.8c3.3-1.6,6-3.8,9.6-5.1c2.8-1,5.1-2.8,7.6-4.2
		c0.8-0.5,1.5-1.1,2.4-1.4c1.3-0.5,2.3-1.1,3.1-2c1.3-1.3,3.2-2.1,4.7-3.2c2.9-1.9,5.6-4,8.4-6c1.7-1.2,3.5-2.3,5.1-3.6
		c1.9-1.4,3.8-2.9,5.6-4.4c2.1-1.8,4.2-3.6,6.3-5.4c3-2.7,6.1-5.4,8.8-8.2c2.1-2.2,4-4.6,5.6-7c1.9-2.9,3.6-5.9,4.2-9.2
		c0.4-2.1,0.4-4.2-0.7-6.3c-1.6-3.4-5-5.2-8.9-6.8c-3.5-1.4-7.1-2.6-10.9-3.5c-2.5-0.6-5.1-1.2-7.7-1.6c-4-0.6-7.9-1-11.9-1.4
		c-1.7-0.2-3.5-0.2-5.3-0.3c-4.4-0.2-8.7-0.4-13.1-0.5c-3.3,0-6.5,0.1-9.8,0.2c-3.7,0.1-7.4,0.2-11,0.4c-2.5,0.1-5,0.3-7.5,0.5
		c-2,0.1-4,0.2-5.9,0.3c-3.7,0.2-7.5,0.3-11.2,0.7c-7.3,0.8-14.7,1.7-22,2.8c-5.3,0.8-10.5,1.8-15.7,2.8c-1.5,0.3-3,0.9-4.5,1
		c-2.6,0.3-4.7,1.4-7.2,1.9c-2.4,0.5-4.8,1.2-7.1,2c-2.2,0.7-4.3,1.5-6.5,2.2c-4.1,1.5-8.3,2.9-12.3,4.5c-3.8,1.5-7.5,3.3-11.3,4.9
		c-1.5,0.7-3,1.5-4.6,2c-1.3,0.4-2.7,0.7-4.1,0.8c-0.8,0.1-1.7-0.4-1.7-1.2c0-0.6-0.1-1.1-0.1-1.7c3.1-1.5,6.1-3,9.1-4.4
		c4.2-2,8.4-4,12.7-6c2.3-1.1,4.7-2.1,7.1-3.1c1.5-0.7,3-1.4,4.3-2.2c0.9-0.6,1.9-0.9,3-1.1c1.7-0.4,2.5-0.9,4-2.4
		c0.5-0.5,1.3-0.9,2-1.1c2.5-0.4,4.4-1.6,6.3-2.8c0.6-0.3,1.2-0.7,1.8-1c1.6-0.7,3-1.6,4-2.8c0.4-0.5,1.2-1.1,2-1.3
		c1.3-0.4,2.3-1.1,3.8-1.3c1.2-0.2,2.6-0.9,3.3-1.9c0.2-0.2,0.6-0.3,1.1-0.5c0-0.1-0.1-0.3-0.1-0.5c0.6,0.1,1.1,0.1,1.6,0.2l0,0
		C285.1,105.8,284.9,106.4,284.8,106.9c-0.7-0.5-1.5-0.2-2,0.2c-2,1.5-5,2.2-6.7,3.9c-1.1,0-1.2,0.7-1.8,1.2
		c0.4,0.1,0.7,0.2,0.8,0.2c1.3-0.8,3.2-0.9,4.2-2.1c0.3-0.4,1-0.6,1.4-0.9C282,108.6,283.4,107.8,284.8,106.9z M268.5,114.8
		c-0.7,0.5-1.3,1-2,1.4c-1.1,0.6-2.2,1.1-3.3,1.7c-0.3,0.2-0.4,0.5-0.6,0.8c0.3,0.1,0.5,0.2,0.6,0.2c1.7-0.9,3.5-1.9,5.2-2.9
		C269.1,115.7,268.9,115.2,268.5,114.8c0.4,0.5,0.8,0.6,1.5,0.3c1.1-0.6,2.3-1.1,3.4-1.6c0.3-0.2,0.5-0.5,0.7-0.7
		c-0.1-0.1-0.2-0.1-0.3-0.2C272.1,113.3,270.3,114.1,268.5,114.8z M251.2,124.3c0.2,0.1,0.6,0.2,0.7,0.2c1.6-0.7,2.7-2,4.8-2.1
		c0.1,0,0.2-0.2,0.3-0.2c1.6-0.9,3.2-1.8,5.2-2.9c-1.2,0.2-2.1,0.2-2.7,0.6C256.7,121.3,254,122.8,251.2,124.3
		c-0.7,0.3-1.4,0.6-2.3,0.9c0.2,0.2,0.4,0.6,0.7,0.6C250.5,125.8,251.2,125.1,251.2,124.3z M139.5,155c-2.5,0-4.3,0.8-6,1.5
		c-2.6,1.1-4.8,2.7-6.9,4.3c-3.4,2.7-6.8,5.4-9.7,8.5c-2.4,2.6-4.9,5.1-6.9,7.9c-2.9,4.1-5.5,8.3-8,12.5c-1.5,2.6-2.7,5.2-4.2,7.8
		c-1.2,2.1-2.2,4.2-2.9,6.5c-0.5,1.7-1.2,3.3-1.8,5c-0.6,1.7-1.5,3.3-1.9,5c-0.9,3.5-1.8,7-1.8,10.6c-0.1,3.8,0.3,7.5,2.5,11
		c1.8,2.9,4.2,5.5,8.2,6.8c1.3,0.4,2.4,0.6,3.7,0.1c0.1-0.6,0.2-1.1,0.3-1.7c0.1-0.4,0.3-1.1,0.7-1.3c2.2-1.1,2.7-3.1,3.9-4.6
		c2-2.5,3.3-5.3,4.9-8.1c0.3-0.5,0.4-1,0.7-1.4c0.5-0.9,1-1.7,1.5-2.5c0.4-0.8,0.6-1.7,1.2-2.4c1.2-1.5,2.1-3,2.4-4.8
		c0-0.2,0.1-0.4,0.3-0.5c1-0.4,1.2-1.1,1.4-1.8c0.4-1,0.6-2.1,1.1-3.1c0.4-0.9,1-1.7,1.5-2.5c0.4-0.8,0.7-1.6,1.1-2.3
		c1.2-2.5,2.6-5,3.7-7.6c0.9-2,1.7-4.1,2.6-6.2c0.9-2.1,1.7-4.2,2.6-6.2c0.4-0.9,0.2-1.5-0.7-2.1c-0.1,0,0-0.2,0-0.4
		c0.3-0.1,0.7-0.1,0.9-0.2c0-0.9-0.1-1.7,0-2.5c0.2-1.1,0.6-2.1,0.9-3.2c0.3-0.9,0.5-1.7,0.8-2.6c0.3-1,0.8-1.9,1-2.9
		c0.4-1.6,0.1-3.3,1.2-4.8c0.2-0.3,0.1-0.8-0.1-1.1c-0.7-0.9,0-1.6,0.1-2.4c0.3,0.1,0.5,0.2,0.7,0.3
		C140.1,161,139.5,158.1,139.5,155z M135.1,179.5c1.4-1.2,1.4-1.2,0.6-2.3C135.5,178,135.3,178.6,135.1,179.5z M136.5,176.9
		c0.3-0.4,1-0.8,0-1.4C136.5,176.1,136.5,176.5,136.5,176.9z"/>
	<path class="st0" d="M86.4,265.7c-0.1,0.2-0.2,0.5-0.4,0.7c-0.5,0.6-0.7,1.1,0,1.7c0.7,0.6,0.5,1.2-0.3,1.6c-0.9,0.5-1,1.1-1.4,1.8
		c-1,1.6-2.2,3.2-3.3,4.7c-0.3,0.4-0.5,0.8-0.7,1.3c-0.6,1.2-2,2.2-2.3,3.5c0,0.1-0.1,0.2-0.2,0.3c-2.2,1.1-4.2,2.3-7.2,1.9
		c-1.5-0.2-2.7-0.9-4-1.4c-0.6-0.3-0.9-0.9-1.2-1.3c-1.8-2.8-1.4-6-2.1-9c-0.8-3.3-1-6.7-1.3-10c-0.2-1.9,0-3.9,0-5.8
		c0-0.7,0.2-1.3,0.9-1.8c-0.2-0.3-0.6-0.6-0.6-0.9c-0.1-1.6-0.3-3.2-0.2-4.8c0.5-6.5,1.1-13,1.8-19.5c0.6-5.1,1.5-10.1,2.3-15.1
		c0.5-3.3,1.5-6.6,1.6-9.9c0.1-2.7,1-5.4,1.4-8.1c0.1-0.6,0.6-1.2,0.9-1.8c-0.1-0.6-0.5-1.2-0.4-1.8c0.4-2.6,0.9-5.2,1.5-7.7
		c0.5-2.6,1.1-5.2,1.9-7.8c0.7,1.1,1.5,2.2,1.4,3.4c-0.1,1,0,2,0,3c-0.7,0.8-0.9,1.7-0.3,2.6c-0.2,0.2-0.4,0.5-0.5,0.7
		c-0.3,1.6-0.5,3.2-0.9,4.8c-0.5,2.4-1.2,4.8-1.8,7.2c-0.3,0-0.6,0-0.8,0c0.2,0.8,0.5,1.5,0.5,2.1c-0.1,0.6-0.5,1.3-0.9,2.1
		c0.7,1,0.7,1-0.2,2.1c0.3,0.3,0.6,0.6,0.9,0.9c0.5-0.5,0.6-0.9,0.7-1.2c0.2-1.5,0.5-3,0.7-4.4c0.2-1.5,0.5-3.1,0.7-4.6
		c0.2-1.6,0.2-3.2,0.8-4.8c0.6-1.6,1-3.2,0.7-4.9c0.5-0.8,0.7-1.7,0.3-2.6c0.2-0.6,0.5-1.2,0.7-1.9c0.6-2.2,1.6-4.4,1.6-6.6
		c0-2.2,0.8-4.2,0.9-6.3c0.1-1.4,0.5-2.7,1-4c0.6-1.5,0.9-3.1,1.2-4.7c0.7-3.7,1.4-7.4,2-11.1c0.1-0.4-0.1-0.7-0.1-1.1
		c0-0.4-0.1-0.8,0-1.2c0.6-2.3,1.2-4.5,1.8-6.8c0,0,0.1-0.1,0.1-0.1c-0.4-2,0.9-3.8,1.1-5.8c0.3-2.8,0.7-5.7,1.2-8.5
		c0.1-0.8,0.5-1.5,0.6-2.3c0.1-0.9-0.1-1.7,0-2.6c0.1-1.5,0.4-3,0.6-4.6c-0.6,0-1,0-1.4,0c-0.4,0-0.8-0.1-1.7-0.1
		c0.5,0.5,0.7,0.6,0.8,0.8c0.2,0.4,0.5,1,0.3,1.3c-1.5,1.4-1.3,3.1-1.5,4.8c-0.2,1.5-0.6,3-0.9,4.5c-0.1,0.6-0.7,1.3,0.8,1.4
		c0.1,0,0.4,0.5,0.4,0.8c-0.1,1.6-0.2,3.1-0.5,4.7c-0.5,3-1.1,5.9-1.7,8.9c-0.1,0.3-0.3,0.6-0.6,1c-1-1.2,0-2.2,0.1-3.2
		c0.1-1,0.4-2.1,0.7-3.2c-1,0.1-1.2,0.6-1.3,1.1c-0.2,1.1-0.3,2.1-0.5,3.2c-0.1,0.4-0.1,0.8-0.8,1l0,0c-0.1-0.1-0.3-0.2-0.2-0.2
		c0.5-2.9,1-5.7,1.6-8.8c0.4,0.5,0.7,0.8,0.9,1.2c0.9-0.4,0.9-1.1,0.9-1.7c0-0.8-0.1-1.5,0.4-2.3c0.3-0.4,0.2-1-0.6-1.5
		c-0.3,1.5-0.5,2.8-0.7,4.1c-0.2,0-0.3,0-0.5,0c-0.5-1.2,0.1-2.3,0.2-3.5c0.2-1.2,0.4-2.5,0.5-3.7c0.2-1.2,0.3-2.4,0.5-3.6
		c0.2-1.2,0.4-2.4,0.3-3.8c-0.5,0.6-1,1.1-1.5,1.7c-2.6,3.4-5.1,6.9-7.7,10.3c-1.8,2.2-3.8,4.3-5.7,6.5c-1.9,2.2-3.8,4.4-5.8,6.6
		c-2.1,2.4-4.2,4.7-6.5,7c-2.8,2.9-5.6,5.8-8.6,8.6c-2,1.9-4.2,3.7-6.4,5.5c-4.2,3.4-8.5,6.8-12.8,10.1c-1.6,1.2-3.6,2.2-5.3,3.4
		c-2.8,2.1-6.1,3.7-9.2,5.5c-1.2,0.7-2.6,1.3-3.9,2c-1,0.5-2.1,0.9-3.1,1.5c-0.9,0.5-1.7,0.6-2.6,0.3c-0.3-0.6-0.6-1.2-1-1.9
		c0.3-0.3,0.6-0.8,1.1-1c2.1-0.7,3.3-2.3,5.1-3.2c1.8-1,3.5-2,5.2-3c1.6-1,3.2-2,4.7-3c2.4-1.7,4.9-3.3,7.2-5
		c3.9-2.9,7.6-5.9,11.6-9c0.4,0.1,0.8,0.3,1,0.4c1.1-0.3,2-0.6,3.1-0.9c0-0.3,0-0.7,0-1.4c-1.1,0.5-1.9,0.9-2.8,1.3
		c0.6-1.5,2.4-2.2,3.6-3.4c1,0.7-0.2,1.3,0,2c1.4-0.6,2.7-1.2,3.3-2.5c0.2-0.5,0.8-0.9,1.3-1.2c0.8-0.4,0.4-0.7,0-1.1
		c0.2-0.2,0.5-0.3,0.7-0.5c0.3-0.1,0.9-0.2,0.9-0.3c0.3-1.1,1.7-1.3,2.6-1.9c0.9-0.7,1.3-1.7,2.1-2.5c1.7-1.8,3.3-3.5,5.1-5.3
		c1.6-1.5,3-3.2,3.9-5l-0.1,0.1c0.5-0.4,1-0.8,1.5-1.3c1.2-1.1,2.4-2.2,3.5-3.4c1.2-1.3,2.2-2.8,3.3-4.1c0.1-0.1,0.2-0.3,0.3-0.4
		c0.4-0.8,1.8-1.1,2.1-2.2c0.2-0.9,1.1-1.6,1.7-2.4c0.6-0.8,1.2-1.5,1.7-2.3c0.6-0.8,1.1-1.7,1.7-2.5c0.7-0.8,1.5-1.6,2.1-2.5
		c0.6-0.9,0.9-2,1.6-2.8c1.8-2,2.3-4.3,2.3-6.7c0.1-2.5,0.5-5,0.8-7.4c0-0.5-0.1-1-0.1-1.5c0.1-2.8,0.3-5.6,0.5-8.4
		c0.1-1,0.2-2.1,0.3-3.1c0.2-1.8,0.4-3.6,0.8-5.4c0.5-2.3,1.3-4.7,1.8-7c0.4-1.6,1.6-2.8,2.5-4.1c0.2-0.3,0.6-0.6,0.9-0.8
		c1.4-0.7,2.8-1.4,4.4-1.9c0.7-0.2,1.9-0.2,2.6,0.1c1.5,0.8,2.9,1.7,3,3.3c0.3,3.4-0.1,6.8-0.8,10.1c-0.6,2.9-1.8,5.7-2.8,8.5
		c-1.7,4.5-3.8,8.8-6.3,13.1c-0.6,1.1-1.1,2.2-1.6,3.4c-0.1,0.2-0.2,0.5-0.3,0.8c-0.3,3.1-0.4,6.2-0.9,9.3
		c-0.5,3.9-0.7,7.9-1.9,11.8c-0.6,1.9-0.5,3.8-0.8,5.7c-0.4,2.5-0.9,5.1-1.3,7.6c-0.5,2.7-0.9,5.3-1.3,8c-0.4,2.2-0.9,4.3-1.3,6.5
		c-0.6,3.1-1.1,6.3-1.7,9.4c-0.5,2.4-1.1,4.7-1.6,7.1c-0.2,0.9-0.4,1.7-0.5,2.6c-0.5,3.6-1,7.2-1.6,10.9c-0.5,2.9-1.1,5.8-1.7,8.6
		c-0.1,0.4-0.2,0.8-0.2,1.2c0.1,2.6-0.9,5.1-1.3,7.6c-0.4,2.2-0.6,4.4-1,6.6c-0.2,1-0.4,2-0.6,3.1c-0.3,1.9-0.5,3.8-0.8,5.6
		c-0.3,1.7-0.6,3.4-1,5.1c0,0.2-0.2,0.4-0.2,0.6c-0.2,2.7-0.3,5.3-0.6,8c-0.1,1.5-0.5,2.9-0.6,4.4c-0.2,2.8-0.2,5.5-0.3,8.3
		c0,0.4,0,0.8-0.2,1.2c-0.7,1.8-0.6,3.6-0.4,5.4c0.2,2.1,0,4.3,0,6.5c0,0.2,0,0.4,0,0.6c0.3,3.1,0.5,6.2,0.9,9.3
		c0.1,1.3,0.4,2.6,0.5,3.9c0.1,1.5,0.8,2.9,1.4,4.3c0.2,0.6,0.5,1.2,0.8,2c0.5-0.2,1.1-0.4,1.5-0.7c1.3-0.9,2.6-1.8,3.4-3
		c0.4-0.7,1.3-1.2,2-1.8c0.3-0.2,0.6-0.4,0.8-0.7c1.2-1.7,2.4-3.3,3.4-5.1c0.6-1.1,1.5-1.9,2.6-2.7C86,265.1,86.2,265.4,86.4,265.7z
		 M70,209.1c0.7-0.9,0.7-1.1,0.1-1.9C70.1,207.8,70.1,208.4,70,209.1c-0.1,0.4-0.2,0.7-0.4,1c0.1,0,0.3,0,0.4,0.1
		C70.1,209.8,70,209.4,70,209.1z M29,169.9c-0.8,0.3-1.6,0.6-2.7,0.9c0.6,0.3,1.1,0.5,1.6,0.8C28.3,170.9,28.6,170.4,29,169.9
		c0.4-0.2,0.9-0.3,1.6-0.5c-0.3-0.4-0.6-0.6-1.2-1.3C29.2,169,29.1,169.4,29,169.9z M97.7,72.5c-1.2,0.8-2,1.6-2.6,2.6
		c-1.6,3-2.2,6.2-2.7,9.4c-0.6,3.5-0.9,7-1.2,10.5c-0.1,1.4,0,2.7,0,4.2c0.3-0.1,0.5-0.1,0.5-0.2c1.3-2.6,2.8-5.2,3.9-7.8
		c0.9-2.3,1.4-4.7,2-7.1c0.7-2.6,1.5-5.2,1.5-7.8c0-0.6,0.2-1.4-1-1.6c0,0,0-0.2,0-0.2c0.4,0,0.7,0.1,1.5,0.2
		C98.8,73.8,98.3,73.2,97.7,72.5z M35.8,163.6c-1,0.8-1.8,1.5-2.8,2c-1.1,0.7-1.2,1.4-0.6,2.3c1.1-0.9,2.2-1.8,3.4-2.8
		C35.8,164.8,35.8,164.3,35.8,163.6z M87.4,101.9c0.2,0,0.3,0,0.5,0c0.8-1.1,1-4.7,0.3-6.5C87.9,97.5,87.6,99.7,87.4,101.9z
		 M67.1,224c0.5-0.7,0.8-1.2,1-1.7c0.3-0.6-0.1-1-1-0.8c-0.3,0-0.7,0.2-1,0.3C66.5,222.5,66.8,223.2,67.1,224z M72.5,184.3
		c0.3-0.7,0.7-1.4,1-2.1C72,182.7,72,182.7,72.5,184.3z M88.1,102.9c-0.2,0-0.3,0-0.5,0c0,0.8,0,1.7,0,2.5c0.1,0,0.1,0,0.2,0
		C87.9,104.5,88,103.7,88.1,102.9z M69,213.2c0.3-0.8,0.5-1.4,0.7-2.1c0-0.1-0.1-0.1-0.2-0.2C68.5,212.3,68.5,212.3,69,213.2z
		 M39.1,161.6c-1.8,0.2-1.8,0.2-1.8,1.1c0.2,0,0.4-0.1,0.6-0.1C38.2,162.3,38.5,162,39.1,161.6z M67.8,215.5
		c0.9,0.6,0.9,0.6,1.4-0.1C68.6,215.4,68.2,215.4,67.8,215.5z M66.1,231.4c0.2,0,0.3,0,0.5,0c0.1-0.4,0.4-0.8-0.5-1.1
		C66.1,230.7,66.1,231.1,66.1,231.4z M88.6,92.7c-0.1,0-0.2,0-0.3,0c0,0.4-0.1,0.9-0.1,1.3c0.1,0,0.2,0,0.3,0
		C88.6,93.6,88.6,93.1,88.6,92.7z M67.6,219.9c0.2,0,0.3,0.1,0.5,0.1c0.1-0.3,0.2-0.6,0.4-0.9c-0.1,0-0.3-0.1-0.4-0.1
		C67.9,219.3,67.7,219.6,67.6,219.9z M63.1,252.9c0.1,0,0.2,0,0.3,0c0-0.3,0-0.5,0-0.8c0,0-0.1,0-0.1,0
		C63.2,252.4,63.1,252.7,63.1,252.9z"/>
	<path class="st0" d="M418.2,40.7c-0.1-0.1-0.2-0.4-0.1-0.4c0.9-0.5,1.7-1.3,2.6-1.4c0.9-0.1,1.3-0.3,1.8-0.7
		c0.2-0.2,0.5-0.3,0.8-0.4c1.5-0.5,3.1-0.8,4.1-1.9c0.1-0.2,0.4-0.3,0.7-0.3c2-0.5,3.6-1.7,5.6-2.3c0.2-0.1,0.4-0.3,0.7-0.5
		c-0.7,0.1-1.2,0.1-2.1,0.2c1.2-0.9,2.2-1.5,3.4-1.8c1.8-0.3,3.3-1,4.7-1.8c2.4-1.4,4.9-2.4,7.8-3l-0.1,0c-0.4,0.4-0.8,0.9-1.4,1.5
		c0,0.1,0.1,0.4,0.3,0.9c-2.2,0.4-3.7,2-6,2c-1.3,1.5-3.7,1.7-5.5,2.6c-1.8,0.9-3.7,1.7-5.6,2.5c-1.9,0.8-3.9,1.6-5.9,2.5
		C422.1,39.1,420.2,39.9,418.2,40.7L418.2,40.7z M434.6,32.7c1.4-0.3,2.4-0.6,3.5-0.9c0-0.1-0.1-0.2-0.1-0.3
		C436.9,31.7,435.6,31.5,434.6,32.7z M444.3,29.1c-0.9-0.2-0.9-0.2-1.5,0.2C443.4,29.3,443.9,29.2,444.3,29.1z"/>
	<path class="st0" d="M361.4,66.9c2.4-1.2,4.9-2.5,7.3-3.7c1.1-0.6,2.2-1.2,3.3-1.8c1.3-0.7,2.8-1.2,4.1-1.8c0.5-0.3,1-0.6,1.5-0.9
		c1.1-0.6,2.2-1.3,3.4-1.7c1.9-0.7,3.6-1.5,5.1-2.6c1.1-0.8,2.5-1.3,4.4-1.2c-0.4,0.3-0.6,0.5-0.8,0.6c-0.9,0.4-1.8,0.7-2.6,1.1
		c-2.2,1-4.4,2.2-6.7,3.1c-2.5,1-4.5,2.5-7.1,3.5c-2.5,1-4.8,2.4-7.2,3.6c-1,0.5-1.8,1.1-2.9,1.5C362.7,66.8,362,66.8,361.4,66.9
		L361.4,66.9z"/>
	<path class="st0" d="M86.4,265.7c-0.2-0.3-0.4-0.6-0.5-0.8c0.1-0.1,0.3-0.4,0.4-0.4c0.3,0.1,0.6,0.2,1,0.4c0.2-0.2,0.5-0.4,0.6-0.7
		c1-1.9,2.3-3.7,3.8-5.4c0.1-0.1,0.3-0.3,0.2-0.4c-0.5-1.4,1.3-1.6,2-2.4c0.1-0.1,0.6,0,1.1,0c-0.9,2.2-2.5,3.8-4.1,5.6
		c-1.5,1.7-2.6,3.6-3.9,5.4C85.7,266.9,86.4,266.2,86.4,265.7z"/>
	<path class="st0" d="M75.7,173.8c-0.3,0-0.5,0.1-0.9,0.1c0-0.4,0-0.8,0-1.5c-0.5,0.5-0.8,0.7-0.9,0.9c-0.1,0.6-0.2,1.3-0.3,1.9
		c0,0.1-0.2,0.2-0.7,0.5c0.2-2.7,0.8-5,1.5-7.5c0.5,0.2,0.8,0.4,1.2,0.5c0.2-0.4,0.5-0.8,0.9-1.5c0.5,1.3,0.1,2.3-0.3,3.4
		C75.9,171.6,75.9,172.7,75.7,173.8L75.7,173.8z M75.2,170.9c0.2-0.1,0.3-0.1,0.5-0.2c-0.2-0.2-0.4-0.5-0.6-0.7
		c-0.1,0.1-0.2,0.1-0.4,0.2C74.9,170.4,75,170.7,75.2,170.9z"/>
	<path class="st0" d="M469,19.9c-3.6,1.3-7.1,2.7-11,4.2c0.6-0.6,0.9-1,1.4-1.6c-1,0.2-1.7,0.3-2.4,0.5c0,0,0-0.1-0.1-0.1
		c1.4-0.6,2.7-1.2,4.1-1.8c1.3-0.6,2.4-1.5,4.3-1.5c-1.6,1.5-4.2,1.6-5.7,3c3.3-0.5,5.9-2.3,9.2-3C468.9,19.6,468.9,19.7,469,19.9z"
		/>
	<path class="st0" d="M78.7,153.4c1.1,0.8,1.1,1,0.1,2.4c-0.3-0.2-0.6-0.3-1.2-0.6c-0.2,1.4-0.3,2.7-0.5,3.9
		c-0.1,0.5-0.4,0.9-0.8,1.3c-0.1-2.6,0.5-5.2,1.2-8.1C78.1,152.9,78.4,153.2,78.7,153.4c-0.2,0.2-0.6,0.4-0.8,0.5
		c0.2,0.3,0.4,0.5,0.6,0.7c0,0,0.1,0,0.3,0c0-0.2,0.1-0.4,0.1-0.6C78.8,153.8,78.7,153.6,78.7,153.4z"/>
	<path class="st0" d="M80.6,149.1c-0.7-0.3-1-0.5-1.5-0.8c-1.4,1.1-0.2,2.7-1.2,3.8c-0.6-0.9-0.1-3.8,0.9-5.1
		c0.2,0.2,0.4,0.5,0.8,0.9c0.4-1.2,0.7-2.1,1-3.1c0.1,0,0.2,0,0.3,0C80.9,146.2,80.8,147.5,80.6,149.1z"/>
	<path class="st0" d="M48.2,153.3c-0.2,0.2-0.5,0.3-0.7,0.5c-0.7,0.6-1.6,1.1-2,1.8c-0.4,0.8-1,0.7-1.8,0.6c0.6-1.5,2.2-2.9,4.3-3.7
		C48,152.8,48.1,153,48.2,153.3z"/>
	<path class="st0" d="M397.7,50c-1.8,0.8-3.7,1.6-5.6,2.5c-0.2-1,0.9-1.4,1.6-1.6c0.8-0.3,1.5-0.5,2.1-1.1
		C396.4,49.3,397,49.2,397.7,50z"/>
	<path class="st0" d="M448.3,26.3c2-1.3,4.1-2.4,6.8-2.7C453.3,25.3,450.7,25.7,448.3,26.3C448.2,26.3,448.3,26.3,448.3,26.3z"/>
	<path class="st0" d="M285.2,105.3c0.6-0.4,1.3-0.9,2-1.3c0.8-0.5,1.6-0.9,2.4-1.4c0.8-0.4,1.6-0.9,2.7-1.1
		c-0.3,0.3-0.5,0.7-0.8,0.9c-1.7,1-3.4,1.9-5.1,2.8C286.1,105.4,285.6,105.3,285.2,105.3L285.2,105.3z"/>
	<path class="st0" d="M62.7,138.4c-0.4,0.1-0.9,0.2-1,0.4c-0.4,0.5-1,0.3-1.2,0.1c-0.2-0.2-0.1-0.8,0.1-0.9c1.1-0.3,1.4-1.1,1.7-1.8
		c0.3-0.7,0.9-0.8,1.9-0.7c-0.2,0.4-0.3,0.6-0.6,0.9c-0.4,0.4-0.8,0.8-1.3,1.2C62.5,137.9,62.6,138.2,62.7,138.4
		C62.6,138.4,62.7,138.4,62.7,138.4z"/>
	<path class="st0" d="M405.2,46.2c-0.3,0.3-0.5,0.8-0.8,0.8c-1.5,0.2-2.5,1-3.6,1.6c-0.2,0.1-0.7,0.1-1.5,0.2
		C401,47.2,403.1,46.7,405.2,46.2L405.2,46.2z"/>
	<path class="st0" d="M354,71.1c-1.4,1.1-4.9,2.8-6.4,2.8C349.6,72.5,351.6,71.5,354,71.1L354,71.1z"/>
	<path class="st0" d="M94.1,254.9c1.4-0.6,1.1-2.2,2.8-2.6c0.7,0.4,0.3,0.9,0.1,1.4c-0.3,0.4-0.5,0.8-0.9,1.2
		C95.6,255.3,94.9,255.4,94.1,254.9z"/>
	<path class="st0" d="M418.2,40.7c-0.9,0.3-1.7,0.6-2.5,1.1c-0.8,0.5-2,0.7-3.1,1.1c-0.1-0.3-0.2-0.4-0.2-0.4
		c1.4-0.6,2.9-1.3,4.4-1.9C417.2,40.5,417.8,40.7,418.2,40.7L418.2,40.7z"/>
	<path class="st0" d="M453.3,25.9c-1.8,0.7-3.2,1.7-5.2,2.1c0.5-1.2,1.8-1.3,2.7-1.8C451.7,25.7,451.7,25.7,453.3,25.9z"/>
	<path class="st0" d="M392.7,50.5c-2,0.9-4,1.8-6.1,2.7c-0.1-0.1-0.2-0.2-0.3-0.3c2-0.9,4-1.8,6-2.7
		C392.5,50.3,392.6,50.4,392.7,50.5z"/>
	<path class="st0" d="M79.6,141.9c0.9,0.6,1,1.3,0.6,2.1c-0.3,0.6-0.7,1.2-1.2,1.7C78.7,144.4,79,143.2,79.6,141.9
		C79.6,141.9,79.6,141.9,79.6,141.9z"/>
	<path class="st0" d="M326.9,81.9c1.1-0.9,2.4-0.3,3.5-0.7c-0.4,0.5-0.6,1-1.5,1.3C327.7,82.8,327.6,82,326.9,81.9z"/>
	<path class="st0" d="M405.2,46.3c0.1-0.2,0.1-0.4,0.2-0.5c0.8-0.4,1.7-0.5,2.3-1.2c0.2-0.3,1.1-0.2,1.8-0.1
		C408.2,45.3,406.9,46.1,405.2,46.3C405.2,46.2,405.2,46.3,405.2,46.3z"/>
	<path class="st0" d="M354.1,71.1c0.1-0.2,0-0.6,0.2-0.7c1.2-0.6,2.5-1.2,3.7-1.8c0.1,0,0.2,0.1,0.4,0.1c0,0.1,0.1,0.3,0.1,0.3
		C357,69.7,355.5,70.4,354.1,71.1L354.1,71.1z"/>
	<path class="st0" d="M75.8,161.9c0-0.3-0.1-0.5-0.1-0.8c0.8-0.1,2.1,0.3,2.1-1.1c1.1,1-0.2,1.6,0.1,2.4
		C77.1,162.3,76.7,161.4,75.8,161.9C75.8,161.9,75.8,161.9,75.8,161.9z"/>
	<path class="st0" d="M76.1,166.3c-0.4-0.1-0.7-0.2-1.3-0.4c0.4-1.3,0.1-2.7,1.1-3.9c0,0-0.1,0-0.1,0c0,1-0.1,2-0.1,3
		C75.7,165.4,76,165.8,76.1,166.3L76.1,166.3z"/>
	<path class="st0" d="M56.6,143c0.7-1.6,0.7-1.6,2.4-2.3C58.8,141.9,58.1,142.7,56.6,143z"/>
	<path class="st0" d="M369.1,61.1c1-0.5,2.1-0.9,3.4-1.5C371.4,60.8,371,61,369.1,61.1z"/>
	<path class="st0" d="M79.3,115.8c-0.4,0.7-0.9,1.4-1.3,2.1C77.5,116.9,78.1,116.3,79.3,115.8z"/>
	<path class="st0" d="M361.3,66.9c0.3,1-0.8,1-1.6,1.4C359.6,67.1,360.5,67,361.3,66.9C361.4,66.9,361.3,66.9,361.3,66.9z"/>
	<path class="st0" d="M297.6,98.3c0.9-0.4,1.6-0.7,2.4-1.1C299.3,98.5,299.2,98.5,297.6,98.3z"/>
	<path class="st0" d="M409.3,43.1c-0.7,0.3-1.4,0.6-2.1,0.9c-0.1-0.1-0.1-0.2-0.2-0.3c0.7-0.3,1.3-0.7,2-1
		C409,42.8,409.1,42.9,409.3,43.1z"/>
	<path class="st0" d="M457.4,24.4c-0.6,0.2-1.2,0.3-1.9,0.4C456.3,23.8,456.3,23.8,457.4,24.4z"/>
	<path class="st0" d="M410.4,43.5c0.5-0.2,1-0.3,1.7-0.5C411.4,43.8,411.4,43.8,410.4,43.5z"/>
	<path class="st0" d="M417,39.8c-0.5,0.2-0.9,0.5-1.5,0.8C415.4,39.6,416.2,39.6,417,39.8z"/>
	<path class="st0" d="M75.7,173.8c-0.1,0.6-0.3,1.1-0.5,1.8C74.3,174.7,75.2,174.3,75.7,173.8L75.7,173.8z"/>
	<path class="st0" d="M76.1,166.3c0.3-0.3,0.6-0.6,0.9-0.9c0.1,0,0.2,0,0.3,0.1c-0.1,0.4-0.2,0.8-0.3,1.3
		C76.6,166.5,76.3,166.4,76.1,166.3C76.1,166.3,76.1,166.3,76.1,166.3z"/>
	<path class="st0" d="M357.9,66.7c0.5-0.2,0.9-0.5,1.4-0.7c0.1,0.1,0.1,0.1,0.2,0.2c-0.4,0.2-0.8,0.5-1.2,0.7
		C358.2,66.9,358.1,66.8,357.9,66.7z"/>
	<path class="st0" d="M53.7,146.7c-0.2,0.3-0.4,0.7-0.6,1c-0.1,0-0.3-0.1-0.4-0.1c0.2-0.3,0.4-0.7,0.6-1
		C53.4,146.6,53.6,146.6,53.7,146.7z"/>
	<path class="st0" d="M394.4,49.7c-0.3,0.2-0.7,0.3-1,0.5c-0.1-0.1-0.1-0.1-0.2-0.2c0.3-0.2,0.6-0.4,0.9-0.6
		C394.2,49.5,394.3,49.6,394.4,49.7z"/>
	<path class="st0" d="M400.3,46.8c0.4-0.2,0.8-0.5,1.2-0.7c0.1,0.1,0.2,0.2,0.3,0.3c-0.4,0.2-0.8,0.4-1.2,0.6
		C400.5,47,400.4,46.9,400.3,46.8z"/>
	<path class="st0" d="M304.5,94.7c0.3-0.1,0.6-0.3,1-0.4c0.1,0.1,0.1,0.2,0.2,0.2c-0.3,0.1-0.6,0.3-1,0.4
		C304.6,94.8,304.6,94.8,304.5,94.7z"/>
	<path class="st0" d="M423.9,36.6c-0.3,0.2-0.6,0.4-0.9,0.5c-0.1-0.1-0.1-0.1-0.2-0.2c0.3-0.2,0.6-0.4,0.9-0.6
		C423.8,36.4,423.8,36.5,423.9,36.6z"/>
	<path class="st0" d="M77.5,163.8c0,0.3-0.1,0.6-0.1,0.9c-0.1,0-0.2,0-0.4,0c0-0.3,0.1-0.6,0.1-0.9
		C77.2,163.9,77.3,163.8,77.5,163.8z"/>
	<path class="st0" d="M51.2,149.3c-0.1,0.2-0.2,0.4-0.3,0.6c0,0-0.3-0.1-0.5-0.1c0.1-0.2,0.3-0.4,0.4-0.6
		C50.9,149.2,51.1,149.2,51.2,149.3z"/>
	<path class="st0" d="M331.2,80.5c0.4-0.2,0.7-0.4,1.1-0.6c0.1,0,0.1,0.1,0.2,0.1c-0.2,0.2-0.3,0.3-0.5,0.4
		c-0.2,0.1-0.4,0.2-0.7,0.3C331.3,80.7,331.2,80.6,331.2,80.5z"/>
	<path class="st0" d="M97.7,77.6c0.1-0.7,0.1-1.3,0.2-2.2C98.5,76.1,98.5,76.1,97.7,77.6z"/>
	<path class="st0" d="M93.8,90.3c0.2-0.4,0.4-0.8,0.7-1.5c0.6,0.9-0.1,1.2-0.2,1.7C94.1,90.3,93.9,90.3,93.8,90.3z"/>
	<path class="st0" d="M97.4,79.9c0-0.5,0-0.8,0-1.2C97.9,79.1,98.1,79.4,97.4,79.9z"/>
</g>
<path class="st0" d="M171.8,252h-3.9v31.5h-3.8l-16.7-30.8v28.7h4.5v2.2h-11.6v-2.2h4.4V252h-4.4v-2.2h8.6c1.4,2.6,2.7,5.2,4.1,7.7
	c1.3,2.5,2.7,5,4.1,7.4c1.4,2.5,2.7,4.9,4.1,7.4c1.3,2.5,2.7,5.1,4.1,7.7V252h-4.4v-2.2h11.1V252z"/>
<path class="st0" d="M179,284.1h-3.7v-3.6h3.7V284.1z"/>
<path class="st0" d="M207.5,260.3H205v-8h-8.7v29.1h5.3v2.2h-13.6v-2.2h5.3v-29.1h-8.7v8h-2.5v-10.4h25.4V260.3z"/>
<path class="st0" d="M214.8,284.1h-3.7v-3.6h3.7V284.1z"/>
<path class="st0" d="M248.2,283.6h-9.9v-2.2h3.4l-11.3-13.2l-2-1.9l0,15.1h4.4v2.2h-11.6v-2.2h4.4V252h-4.4v-2.2h11.6v2.2h-4.4
	l0,13.9c0.3-0.3,0.9-1.1,2.1-2.2c1.1-1.2,2.7-2.7,4.6-4.7c2-2,3.5-3.6,4.7-4.7c1.1-1.2,1.8-1.9,2.1-2.2h-4v-2.2h9.9v2.2h-2.6
	c-0.9,1.1-2,2.4-3.3,3.8s-2.8,2.9-4.6,4.6l-5.3,5.2l13.6,15.7h2.7V283.6z"/>
</svg>
